<svg width="40" height="40" viewBox="0 0 40 40" fill="none" xmlns="http://www.w3.org/2000/svg">
<path d="M27.9511 39.9921H19.9921V35.9094C19.9921 35.5311 19.9212 35.1606 19.7715 34.8138C19.6217 34.467 19.409 34.1518 19.1332 33.8917C18.4476 33.2138 17.4547 32.8355 16.4066 32.8513C15.4768 32.8592 14.5784 33.1981 13.8692 33.805C13.4043 34.2148 12.8526 34.9242 12.8526 35.9882V40H4.96454C3.64854 40 2.38771 39.4719 1.45784 38.5419C0.527974 37.6118 0 36.3508 0 35.0345V27.1449H4.08195C4.9015 27.1449 5.6974 26.7981 6.31993 26.1597C6.66666 25.805 6.94248 25.3873 7.1316 24.9302C7.32073 24.473 7.41529 23.9844 7.40741 23.4878C7.38377 21.5962 5.82348 19.9962 4.01103 19.9962H0V12.0199C0 11.3736 0.126086 10.7273 0.378253 10.1283C0.63042 9.52931 1.00079 8.98547 1.4736 8.53621C2.41135 7.62982 3.6643 7.13327 4.96454 7.14115H10.6068V5.84856C10.6068 5.06827 10.7644 4.30374 11.0638 3.5865C11.3633 2.86927 11.8046 2.22297 12.3562 1.67913C12.9078 1.13529 13.5697 0.709681 14.2868 0.418058C15.0118 0.126434 15.7762 -0.00755364 16.5563 0.00032807C19.7242 0.0555 22.301 2.71163 22.301 5.91949V7.14115H27.9433C28.5894 7.14115 29.2277 7.25938 29.8266 7.50371C30.4255 7.74805 30.9693 8.1106 31.4263 8.56774C31.8834 9.02488 32.2459 9.56872 32.4902 10.1677C32.7344 10.7667 32.8526 11.4052 32.8526 12.0515V17.6948H34.0741C37.3365 17.6948 40 20.2878 40 23.4642C40 26.6405 37.3759 29.3912 34.1529 29.3912H32.8605V35.0345C32.8605 37.7695 30.6619 40 27.9669 40L27.9511 39.9921Z" fill="#1EAB5E"/>
</svg>