<svg width="39" height="40" viewBox="0 0 39 40" fill="none" xmlns="http://www.w3.org/2000/svg">
<path d="M37.4804 32.3536L25.4426 17.6698L25.2688 4.43931L27.4094 4.41561C28.5863 4.39981 29.5342 3.39667 29.5184 2.18025C29.5026 0.97174 28.5231 -0.0156106 27.3541 0.000186969L10.2374 0.229253C9.06052 0.237151 8.11266 1.2482 8.12846 2.45671C8.14426 3.67312 9.11581 4.65257 10.2927 4.63678L12.4333 4.60518L12.6071 17.8357L0.948461 32.8275C0.277064 33.6964 -0.0151912 34.6759 0.000606405 35.6395C0.0479991 37.9144 1.80943 40.0312 4.33704 39.9997L34.2813 39.6047C36.8248 39.5731 38.5309 37.4167 38.5072 35.1419C38.4914 34.1703 38.1754 33.2067 37.4804 32.3536ZM28.3573 26.3269C28.2151 26.4453 28.0413 26.5006 27.8675 26.5006C27.6306 26.5006 27.4015 26.3979 27.2514 26.2084L25.877 24.4943C25.6085 24.1468 25.6638 23.6571 26.0034 23.3806C26.3431 23.112 26.8407 23.1673 27.1171 23.507L28.4836 25.221C28.7522 25.5607 28.6969 26.0583 28.3573 26.3269ZM34.8106 34.4073C34.6684 34.5258 34.4946 34.5811 34.3208 34.5811C34.0839 34.5811 33.8548 34.4784 33.6968 34.2809L29.1708 28.6175C28.9023 28.2778 28.9576 27.7802 29.2972 27.5038C29.6369 27.2352 30.1345 27.2905 30.4109 27.6301L34.9369 33.2936C35.2055 33.6411 35.1502 34.1387 34.8106 34.4073Z" fill="#268BD3"/>
</svg>