<svg width="17" height="23" viewBox="0 0 17 23" fill="none" xmlns="http://www.w3.org/2000/svg">
<path d="M16.9933 1.65865C16.9933 1.46846 16.9799 1.26501 16.9307 1.08809C16.7472 0.393663 16.3178 0 15.7585 0L2.1807 0.00885478C1.93017 0.00885478 1.69754 -0.00883319 1.4649 0.0132822C0.659629 0.0884744 0.00646208 0.787319 0.00198833 1.57463C0.00198833 5.90924 -0.00248542 19.2713 0.00198833 19.7977C0.0109358 20.5407 0.628313 21.2484 1.38885 21.3148C1.38885 21.3148 2.28807 21.3192 3.6302 21.3236V19.3863H2.59676C2.37308 19.3731 2.21649 19.2138 2.20755 19.0148C2.20307 18.8158 2.35518 18.6477 2.57439 18.6211C2.66834 18.6079 2.76677 18.6123 2.86071 18.6123H15.2575C15.3962 18.6123 15.5348 18.6123 15.6735 18.5946C16.3491 18.5106 16.9262 17.9886 16.9799 17.365C17.0112 17.0111 16.9978 5.4448 16.9933 1.65865ZM13.9377 7.48827C13.9377 7.82885 13.6559 8.1075 13.3024 8.1075H3.7331C3.38414 8.1075 3.09782 7.82885 3.09782 7.48827V3.51192C3.09782 3.17134 3.38414 2.89269 3.7331 2.89269H13.3024C13.6559 2.89269 13.9377 3.17134 13.9377 3.51192V7.48827Z" fill="#9919F4"/>
<path d="M16.9709 18.873C16.3535 19.3861 15.6332 19.4038 14.8996 19.3994C14.1659 19.395 11.8485 19.3906 9.41473 19.3906V21.35C12.0632 21.3588 14.5327 21.3632 15.3201 21.3544C16.1567 21.35 16.8143 20.8502 16.9575 20.0894C17.0291 19.709 16.9709 19.3065 16.9709 18.873Z" fill="#9919F4"/>
<path d="M8.48421 19.3906V22.9998L6.52471 21.9472L4.56073 22.9998V19.3906H8.48421Z" fill="#DEB5FC"/>
<path d="M11.7053 6.16579H5.3347C4.96338 6.16579 4.66364 5.86944 4.66364 5.50233C4.66364 5.13521 4.96338 4.83887 5.3347 4.83887H11.7053C12.0766 4.83887 12.3764 5.13521 12.3764 5.50233C12.3764 5.86944 12.0766 6.16579 11.7053 6.16579Z" fill="#DEB5FC"/>
</svg>